<svg xmlns="http://www.w3.org/2000/svg" xmlns:xlink="http://www.w3.org/1999/xlink" version="1.1" x="0px" y="0px" viewBox="0 0 396.144 80" enable-background="new 0 0 396.144 80" xml:space="preserve"><style>.style0{fill:	#EF695F;}</style><g><path d="M20.742 20c-0.419 0.382-0.628 0.877-0.628 1.485v37.029c0 0.6 0.2 1.1 0.6 1.5 c0.419 0.4 0.9 0.6 1.5 0.571h36.686c0.609 0 1.1 0.2 1.5 0.629c0.418 0.4 0.6 0.9 0.6 1.543v15.086 c0 0.611-0.211 1.125-0.629 1.543C60.095 79.8 59.6 80 59 80H35.086H15.429h-2.057c-1.828 0-3.563-0.343-5.2-1.029 c-1.64-0.685-3.068-1.638-4.286-2.857c-1.22-1.217-2.172-2.646-2.857-4.286C0.342 70.2 0 68.5 0 66.629v-2.057v-8.343V29.6 v-7.428v-8.8c0-1.828 0.342-3.561 1.029-5.2c0.685-1.638 1.637-3.047 2.857-4.229c1.217-1.18 2.646-2.132 4.286-2.857 C9.808 0.4 11.5 0 13.4 0h2.057h43.543c0.609 0 1.1 0.2 1.5 0.629c0.418 0.4 0.6 0.9 0.6 1.543v15.086 c0 0.611-0.211 1.124-0.629 1.543c-0.419 0.419-0.934 0.629-1.543 0.629H22.285C21.675 19.4 21.2 19.6 20.7 20z" class="style0"/><path d="M132.914 0c1.828 0 3.6 0.4 5.2 1.085c1.637 0.7 3 1.7 4.2 2.9 c1.181 1.2 2.1 2.6 2.9 4.229c0.724 1.6 1.1 3.4 1.1 5.2v53.257c0 1.828-0.363 3.562-1.086 5.2 c-0.724 1.64-1.676 3.068-2.857 4.286c-1.181 1.219-2.591 2.172-4.228 2.857c-1.639 0.685-3.371 1.029-5.199 1.029H92.456 c-1.828 0-3.563-0.343-5.2-1.029c-1.64-0.685-3.068-1.638-4.286-2.857c-1.22-1.217-2.172-2.646-2.857-4.286 c-0.686-1.638-1.029-3.371-1.029-5.2V13.371c0-1.828 0.342-3.561 1.029-5.2c0.685-1.638 1.637-3.047 2.857-4.229 c1.217-1.18 2.646-2.132 4.286-2.857C88.893 0.4 90.6 0 92.5 0H132.914z M126.056 19.429H99.199v41.142h26.856V19.429z" class="style0"/><path d="M216.913 80h-51.656c-1.449 0-2.173-0.724-2.173-2.172V2.172c0-1.446 0.724-2.172 2.173-2.172h15.77 c1.447 0 2.2 0.7 2.2 2.172v56.343c0 0.6 0.2 1.1 0.6 1.485c0.417 0.4 0.9 0.6 1.5 0.571h22.628 c0.608 0 1.103-0.189 1.486-0.571c0.379-0.38 0.571-0.875 0.571-1.485V2.172c0-0.609 0.208-1.124 0.629-1.543 C211.104 0.2 211.6 0 212.2 0h15.887c0.608 0 1.1 0.2 1.5 0.629c0.419 0.4 0.6 0.9 0.6 1.543v64.457 c0 1.828-0.363 3.562-1.086 5.2c-0.725 1.64-1.676 3.068-2.857 4.286c-1.181 1.219-2.591 2.172-4.228 2.9 C220.475 79.7 218.7 80 216.9 80z" class="style0"/><path d="M268.111 19.2v12.457c0 0.3 0.2 0.5 0.6 0.457h32.571c0.608 0 1.1 0.2 1.5 0.6 c0.419 0.4 0.6 0.9 0.6 1.543v11.429c0 1.448-0.724 2.172-2.171 2.172h-32.571c-0.383 0-0.573 0.191-0.573 0.571V60.8 c0 0.4 0.2 0.6 0.6 0.572h38.285c0.608 0 1.1 0.2 1.5 0.628c0.419 0.4 0.6 0.9 0.6 1.543v14.286 c0 0.611-0.21 1.125-0.629 1.543c-0.419 0.419-0.934 0.629-1.542 0.629h-45.601c-1.828 0-3.562-0.343-5.199-1.029 c-1.639-0.685-3.067-1.638-4.286-2.857c-1.22-1.217-2.173-2.646-2.857-4.286c-0.686-1.638-1.029-3.371-1.029-5.2V13.371 c0-1.828 0.342-3.561 1.029-5.2c0.685-1.638 1.637-3.047 2.857-4.229c1.218-1.18 2.647-2.132 4.286-2.857 C257.806 0.4 259.5 0 261.4 0h45.601c0.608 0 1.1 0.2 1.5 0.629c0.419 0.4 0.6 0.9 0.6 1.543v14.4 c0 0.61-0.21 1.105-0.629 1.485c-0.419 0.382-0.934 0.571-1.542 0.571h-38.285C268.301 18.6 268.1 18.8 268.1 19.2z" class="style0"/><path d="M395.883 78.172c0.303 0.5 0.3 1 0.1 1.314S395.349 80 394.7 80h-18.172 c-0.61 0-1.22-0.171-1.828-0.514c-0.612-0.343-1.068-0.78-1.371-1.314l-12.115-21.714c-0.154-0.304-0.42-0.458-0.8-0.458h-13.601 c-0.381 0-0.571 0.192-0.571 0.572v21.257c0 1.448-0.725 2.172-2.171 2.172H328.34c-1.447 0-2.171-0.724-2.171-2.172V2.172 c0-1.446 0.724-2.172 2.171-2.172h51.657c1.828 0 3.6 0.4 5.2 1.085c1.637 0.7 3 1.7 4.2 2.9 c1.179 1.2 2.1 2.6 2.9 4.229c0.724 1.6 1.1 3.4 1.1 5.2v30.057c0 2.897-0.858 5.506-2.573 7.8 c-1.713 2.325-3.904 3.905-6.572 4.742l-0.342 0.114c-0.534 0.153-0.647 0.382-0.342 0.685l0.113 0.229L395.883 78.172z M373.141 18.628h-27.543v19.429h27.543V18.628z" class="style0"/></g></svg>